<mxfile host="app.diagrams.net" modified="2022-03-23T17:15:44.533Z" agent="5.0 (Macintosh; Intel Mac OS X 10_14_6) AppleWebKit/537.36 (KHTML, like Gecko) Chrome/99.0.4844.51 Safari/537.36" etag="GzQAFxi1m-YbmrpfIA4d" version="17.1.5" type="github" pages="2">
  <diagram id="SQQ2o0ofmh0ifkoWXIEF" name="EC/Hoisting">
    <mxGraphModel dx="1186" dy="764" grid="1" gridSize="10" guides="1" tooltips="1" connect="1" arrows="1" fold="1" page="1" pageScale="1" pageWidth="827" pageHeight="1169" math="0" shadow="0">
      <root>
        <mxCell id="0" />
        <mxCell id="1" style="" parent="0" />
        <object label="" placeholders="1" a="attila" id="PI9pnCwo32T6gKzGFYTY-2">
          <mxCell style="rounded=0;whiteSpace=wrap;html=1;" parent="1" vertex="1">
            <mxGeometry x="580" y="100" width="220" height="570" as="geometry" />
          </mxCell>
        </object>
        <mxCell id="PI9pnCwo32T6gKzGFYTY-3" value="" style="rounded=0;whiteSpace=wrap;html=1;" parent="1" vertex="1">
          <mxGeometry x="279" y="100" width="211" height="570" as="geometry" />
        </mxCell>
        <mxCell id="PI9pnCwo32T6gKzGFYTY-19" value="Stack&lt;br&gt;" style="text;html=1;resizable=0;autosize=1;align=center;verticalAlign=middle;points=[];fillColor=none;strokeColor=none;rounded=0;" parent="1" vertex="1">
          <mxGeometry x="365" y="50" width="50" height="20" as="geometry" />
        </mxCell>
        <mxCell id="PI9pnCwo32T6gKzGFYTY-20" value="Heap" style="text;html=1;resizable=0;autosize=1;align=center;verticalAlign=middle;points=[];fillColor=none;strokeColor=none;rounded=0;" parent="1" vertex="1">
          <mxGeometry x="665" y="50" width="40" height="20" as="geometry" />
        </mxCell>
        <mxCell id="PI9pnCwo32T6gKzGFYTY-23" value="&lt;pre style=&quot;background-color: rgb(30 , 30 , 30) ; font-family: &amp;#34;menlo&amp;#34; , &amp;#34;monaco&amp;#34; , &amp;#34;courier new&amp;#34; , monospace ; font-size: 12px ; line-height: 18px&quot;&gt;&lt;div style=&quot;color: rgb(212 , 212 , 212)&quot;&gt;&lt;span style=&quot;color: #569cd6&quot;&gt; var&lt;/span&gt;&amp;nbsp;&lt;span style=&quot;color: #9cdcfe&quot;&gt;a&lt;/span&gt;&amp;nbsp;=&amp;nbsp;&lt;span style=&quot;color: #b5cea8&quot;&gt;2&lt;/span&gt;;&lt;/div&gt;&lt;div style=&quot;color: rgb(212 , 212 , 212)&quot;&gt;&lt;br&gt;&lt;/div&gt;&lt;div style=&quot;color: rgb(212 , 212 , 212)&quot;&gt;&lt;span style=&quot;color: #9cdcfe&quot;&gt; b&lt;/span&gt;&amp;nbsp;=&amp;nbsp;&lt;span style=&quot;color: #b5cea8&quot;&gt;1&lt;/span&gt;;&lt;/div&gt;&lt;font color=&quot;#d4d4d4&quot;&gt;&lt;br&gt;&lt;/font&gt;&lt;div style=&quot;color: rgb(212 , 212 , 212)&quot;&gt;&lt;span style=&quot;color: #569cd6&quot;&gt; function&lt;/span&gt;&amp;nbsp;&lt;span style=&quot;color: #dcdcaa&quot;&gt;f1&lt;/span&gt;(&lt;span style=&quot;color: #9cdcfe&quot;&gt;z&lt;/span&gt;)&amp;nbsp;{  &lt;/div&gt;&lt;div style=&quot;color: rgb(212 , 212 , 212)&quot;&gt;&amp;nbsp;&amp;nbsp;&amp;nbsp;&lt;/div&gt;&lt;div style=&quot;color: rgb(212 , 212 , 212)&quot;&gt;&lt;span style=&quot;color: #9cdcfe&quot;&gt;   b&lt;/span&gt;&amp;nbsp;=&amp;nbsp;&lt;span style=&quot;color: #b5cea8&quot;&gt;3&lt;/span&gt;;&lt;/div&gt;&lt;div style=&quot;color: rgb(212 , 212 , 212)&quot;&gt;&amp;nbsp;&amp;nbsp;&amp;nbsp;&lt;/div&gt;&lt;div&gt;&lt;font color=&quot;#d4d4d4&quot;&gt;   &lt;/font&gt;&lt;span style=&quot;color: rgb(156 , 220 , 254)&quot;&gt;c&lt;/span&gt;&lt;font color=&quot;#d4d4d4&quot;&gt;&amp;nbsp;=&amp;nbsp;&lt;/font&gt;&lt;span style=&quot;color: rgb(181 , 206 , 168)&quot;&gt;4&lt;/span&gt;&lt;font color=&quot;#d4d4d4&quot;&gt;;&lt;/font&gt;&lt;/div&gt;&lt;div&gt;&lt;font color=&quot;#d4d4d4&quot;&gt;&lt;br&gt;&lt;/font&gt;&lt;/div&gt;&lt;div style=&quot;color: rgb(212 , 212 , 212)&quot;&gt;&amp;nbsp;&amp;nbsp;&amp;nbsp;&lt;span style=&quot;color: #569cd6&quot;&gt;var&lt;/span&gt;&amp;nbsp;&lt;span style=&quot;color: #9cdcfe&quot;&gt;d&lt;/span&gt;&amp;nbsp;=&amp;nbsp;&lt;span style=&quot;color: #b5cea8&quot;&gt;6&lt;/span&gt;;&lt;/div&gt;&lt;div style=&quot;color: rgb(212 , 212 , 212)&quot;&gt;&lt;br&gt;&lt;/div&gt;&lt;div style=&quot;color: rgb(212 , 212 , 212)&quot;&gt;&amp;nbsp;&amp;nbsp;&amp;nbsp;&lt;span style=&quot;color: #569cd6&quot;&gt;function&lt;/span&gt;&amp;nbsp;&lt;span style=&quot;color: #dcdcaa&quot;&gt;g1&lt;/span&gt;(){&lt;/div&gt;&lt;div style=&quot;color: rgb(212 , 212 , 212)&quot;&gt;&amp;nbsp;&amp;nbsp;&amp;nbsp;&amp;nbsp;&amp;nbsp;&amp;nbsp;&amp;nbsp;&lt;/div&gt;&lt;div style=&quot;color: rgb(212 , 212 , 212)&quot;&gt;&lt;span style=&quot;color: #569cd6&quot;&gt;       var&lt;/span&gt;&amp;nbsp;&lt;span style=&quot;color: #9cdcfe&quot;&gt;e&lt;/span&gt;&amp;nbsp;=&amp;nbsp;&lt;span style=&quot;color: #b5cea8&quot;&gt;0&lt;/span&gt;;&lt;/div&gt;&lt;div style=&quot;color: rgb(212 , 212 , 212)&quot;&gt;&lt;br&gt;&lt;/div&gt;&lt;div style=&quot;color: rgb(212 , 212 , 212)&quot;&gt;&amp;nbsp;&amp;nbsp;&amp;nbsp;&amp;nbsp;&amp;nbsp;&amp;nbsp;&amp;nbsp;&lt;span style=&quot;color: #9cdcfe&quot;&gt;d&lt;/span&gt;&amp;nbsp;=&amp;nbsp;&lt;span style=&quot;color: #b5cea8&quot;&gt;3&lt;/span&gt;*&lt;span style=&quot;color: #9cdcfe&quot;&gt;d&lt;/span&gt;;&lt;/div&gt;&lt;div style=&quot;color: rgb(212 , 212 , 212)&quot;&gt;&amp;nbsp;&amp;nbsp;&amp;nbsp;&amp;nbsp;&amp;nbsp;&amp;nbsp;&amp;nbsp;&lt;/div&gt;&lt;div style=&quot;color: rgb(212 , 212 , 212)&quot;&gt;&lt;span style=&quot;color: #c586c0&quot;&gt;       return&lt;/span&gt;&amp;nbsp;&lt;span style=&quot;color: #9cdcfe&quot;&gt;d&lt;/span&gt;;&lt;/div&gt;&lt;div style=&quot;color: rgb(212 , 212 , 212)&quot;&gt;&amp;nbsp;&amp;nbsp;&amp;nbsp;}&lt;/div&gt;&lt;div style=&quot;color: rgb(212 , 212 , 212)&quot;&gt; &lt;/div&gt;&lt;div style=&quot;color: rgb(212 , 212 , 212)&quot;&gt;&amp;nbsp;&amp;nbsp;&amp;nbsp;&lt;span style=&quot;color: #c586c0&quot;&gt;return&lt;/span&gt;&amp;nbsp;&lt;span style=&quot;color: #dcdcaa&quot;&gt;g&lt;/span&gt;();&lt;/div&gt;&lt;div style=&quot;color: rgb(212 , 212 , 212)&quot;&gt; }&lt;/div&gt;&lt;div style=&quot;color: rgb(212 , 212 , 212)&quot;&gt;&lt;span style=&quot;color: #dcdcaa&quot;&gt; f1&lt;/span&gt;(&lt;span style=&quot;color: #b5cea8&quot;&gt;2&lt;/span&gt;);&lt;/div&gt;&lt;/pre&gt;&amp;gt;" style="text;html=1;resizable=0;autosize=1;align=left;verticalAlign=middle;points=[];fillColor=none;strokeColor=none;rounded=0;fontSize=11;" parent="1" vertex="1">
          <mxGeometry x="50" y="140" width="150" height="470" as="geometry" />
        </mxCell>
        <mxCell id="PI9pnCwo32T6gKzGFYTY-9" value="Global Context" style="" parent="0" />
        <mxCell id="PI9pnCwo32T6gKzGFYTY-17" value="" style="rounded=0;whiteSpace=wrap;html=1;" parent="PI9pnCwo32T6gKzGFYTY-9" vertex="1">
          <mxGeometry x="310" y="610" width="150" height="40" as="geometry" />
        </mxCell>
        <mxCell id="PI9pnCwo32T6gKzGFYTY-24" value="this" style="rounded=0;whiteSpace=wrap;html=1;fontSize=19;fillColor=default;" parent="PI9pnCwo32T6gKzGFYTY-9" vertex="1">
          <mxGeometry x="414" y="620" width="40" height="20" as="geometry" />
        </mxCell>
        <mxCell id="PI9pnCwo32T6gKzGFYTY-26" value="" style="endArrow=classic;html=1;rounded=0;fontSize=19;curved=1;exitX=0.5;exitY=0;exitDx=0;exitDy=0;entryX=0;entryY=0.5;entryDx=0;entryDy=0;edgeStyle=orthogonalEdgeStyle;fillColor=#66FF66;strokeColor=#0000FF;" parent="PI9pnCwo32T6gKzGFYTY-9" source="PI9pnCwo32T6gKzGFYTY-24" edge="1">
          <mxGeometry width="50" height="50" relative="1" as="geometry">
            <mxPoint x="260" y="390" as="sourcePoint" />
            <mxPoint x="620" y="150" as="targetPoint" />
            <Array as="points">
              <mxPoint x="520" y="620" />
              <mxPoint x="520" y="150" />
            </Array>
          </mxGeometry>
        </mxCell>
        <mxCell id="PI9pnCwo32T6gKzGFYTY-28" value="" style="shape=singleArrow;whiteSpace=wrap;html=1;fontSize=19;fillColor=#6666FF;" parent="PI9pnCwo32T6gKzGFYTY-9" vertex="1">
          <mxGeometry x="20" y="150" width="20" height="20" as="geometry" />
        </mxCell>
        <mxCell id="PI9pnCwo32T6gKzGFYTY-31" value="Global" style="swimlane;fontStyle=0;childLayout=stackLayout;horizontal=1;startSize=20;fillColor=none;horizontalStack=0;resizeParent=1;resizeParentMax=0;resizeLast=0;collapsible=1;marginBottom=0;fontSize=11;" parent="PI9pnCwo32T6gKzGFYTY-9" vertex="1">
          <mxGeometry x="620" y="111" width="140" height="46" as="geometry">
            <mxRectangle x="620" y="111" width="90" height="30" as="alternateBounds" />
          </mxGeometry>
        </mxCell>
        <mxCell id="PI9pnCwo32T6gKzGFYTY-32" value="a" style="text;strokeColor=none;fillColor=none;align=left;verticalAlign=top;spacingLeft=4;spacingRight=4;overflow=hidden;rotatable=0;points=[[0,0.5],[1,0.5]];portConstraint=eastwest;fontSize=14;" parent="PI9pnCwo32T6gKzGFYTY-31" vertex="1">
          <mxGeometry y="20" width="140" height="26" as="geometry" />
        </mxCell>
        <mxCell id="PI9pnCwo32T6gKzGFYTY-30" value="declaration" parent="0" />
        <mxCell id="PI9pnCwo32T6gKzGFYTY-38" value="" style="shape=singleArrow;whiteSpace=wrap;html=1;fontSize=19;fillColor=#6666FF;" parent="PI9pnCwo32T6gKzGFYTY-30" vertex="1">
          <mxGeometry x="20" y="190" width="20" height="20" as="geometry" />
        </mxCell>
      </root>
    </mxGraphModel>
  </diagram>
  <diagram id="1o7ZeKrb5ymM0ifoA9K7" name="Prototype">
    <mxGraphModel dx="1186" dy="764" grid="1" gridSize="10" guides="1" tooltips="1" connect="1" arrows="1" fold="1" page="1" pageScale="1" pageWidth="827" pageHeight="1169" math="0" shadow="0">
      <root>
        <mxCell id="x7eWs9GeYah_WwPgGHTQ-0" />
        <mxCell id="x7eWs9GeYah_WwPgGHTQ-1" parent="x7eWs9GeYah_WwPgGHTQ-0" visible="0" />
        <mxCell id="x7eWs9GeYah_WwPgGHTQ-2" value="" style="endArrow=none;dashed=1;html=1;dashPattern=1 3;strokeWidth=4;rounded=0;" edge="1" parent="x7eWs9GeYah_WwPgGHTQ-1">
          <mxGeometry width="50" height="50" relative="1" as="geometry">
            <mxPoint x="240" y="600" as="sourcePoint" />
            <mxPoint x="240" y="60" as="targetPoint" />
          </mxGeometry>
        </mxCell>
        <mxCell id="x7eWs9GeYah_WwPgGHTQ-3" value="" style="endArrow=none;dashed=1;html=1;dashPattern=1 3;strokeWidth=4;rounded=0;" edge="1" parent="x7eWs9GeYah_WwPgGHTQ-1">
          <mxGeometry width="50" height="50" relative="1" as="geometry">
            <mxPoint x="560" y="600" as="sourcePoint" />
            <mxPoint x="560" y="65" as="targetPoint" />
          </mxGeometry>
        </mxCell>
        <mxCell id="x7eWs9GeYah_WwPgGHTQ-4" value="$35sr676" style="swimlane;fontStyle=0;childLayout=stackLayout;horizontal=1;startSize=30;horizontalStack=0;resizeParent=1;resizeParentMax=0;resizeLast=0;collapsible=1;marginBottom=0;fillColor=#CCFFFF;" vertex="1" parent="x7eWs9GeYah_WwPgGHTQ-1">
          <mxGeometry x="630" y="100" width="140" height="60" as="geometry" />
        </mxCell>
        <mxCell id="x7eWs9GeYah_WwPgGHTQ-5" value="__proto__" style="text;strokeColor=none;fillColor=none;align=left;verticalAlign=middle;spacingLeft=4;spacingRight=4;overflow=hidden;points=[[0,0.5],[1,0.5]];portConstraint=eastwest;rotatable=0;" vertex="1" parent="x7eWs9GeYah_WwPgGHTQ-4">
          <mxGeometry y="30" width="140" height="30" as="geometry" />
        </mxCell>
        <mxCell id="x7eWs9GeYah_WwPgGHTQ-8" value="Object" style="swimlane;fontStyle=0;childLayout=stackLayout;horizontal=1;startSize=30;horizontalStack=0;resizeParent=1;resizeParentMax=0;resizeLast=0;collapsible=1;marginBottom=0;fillColor=#FFFFCC;" vertex="1" parent="x7eWs9GeYah_WwPgGHTQ-1">
          <mxGeometry x="320" y="100" width="140" height="60" as="geometry" />
        </mxCell>
        <mxCell id="x7eWs9GeYah_WwPgGHTQ-9" value="__proto__" style="text;strokeColor=none;fillColor=none;align=left;verticalAlign=middle;spacingLeft=4;spacingRight=4;overflow=hidden;points=[[0,0.5],[1,0.5]];portConstraint=eastwest;rotatable=0;" vertex="1" parent="x7eWs9GeYah_WwPgGHTQ-8">
          <mxGeometry y="30" width="140" height="30" as="geometry" />
        </mxCell>
        <mxCell id="x7eWs9GeYah_WwPgGHTQ-14" value="anonymous" style="swimlane;fontStyle=0;childLayout=stackLayout;horizontal=1;startSize=30;horizontalStack=0;resizeParent=1;resizeParentMax=0;resizeLast=0;collapsible=1;marginBottom=0;fillColor=#CCFFFF;" vertex="1" parent="x7eWs9GeYah_WwPgGHTQ-1">
          <mxGeometry x="640" y="400" width="140" height="60" as="geometry" />
        </mxCell>
        <mxCell id="x7eWs9GeYah_WwPgGHTQ-15" value="__proto__" style="text;strokeColor=none;fillColor=none;align=left;verticalAlign=middle;spacingLeft=4;spacingRight=4;overflow=hidden;points=[[0,0.5],[1,0.5]];portConstraint=eastwest;rotatable=0;" vertex="1" parent="x7eWs9GeYah_WwPgGHTQ-14">
          <mxGeometry y="30" width="140" height="30" as="geometry" />
        </mxCell>
        <mxCell id="x7eWs9GeYah_WwPgGHTQ-16" value="Function" style="swimlane;fontStyle=0;childLayout=stackLayout;horizontal=1;startSize=30;horizontalStack=0;resizeParent=1;resizeParentMax=0;resizeLast=0;collapsible=1;marginBottom=0;fillColor=#FFFFCC;" vertex="1" parent="x7eWs9GeYah_WwPgGHTQ-1">
          <mxGeometry x="320" y="400" width="140" height="60" as="geometry" />
        </mxCell>
        <mxCell id="x7eWs9GeYah_WwPgGHTQ-17" value="__proto__" style="text;strokeColor=none;fillColor=none;align=left;verticalAlign=middle;spacingLeft=4;spacingRight=4;overflow=hidden;points=[[0,0.5],[1,0.5]];portConstraint=eastwest;rotatable=0;" vertex="1" parent="x7eWs9GeYah_WwPgGHTQ-16">
          <mxGeometry y="30" width="140" height="30" as="geometry" />
        </mxCell>
        <mxCell id="x7eWs9GeYah_WwPgGHTQ-53" value="Function" style="text;html=1;resizable=0;autosize=1;align=center;verticalAlign=middle;points=[];fillColor=none;strokeColor=none;rounded=0;" vertex="1" parent="x7eWs9GeYah_WwPgGHTQ-1">
          <mxGeometry x="350" y="30" width="60" height="20" as="geometry" />
        </mxCell>
        <mxCell id="x7eWs9GeYah_WwPgGHTQ-54" value="Prototype" style="text;html=1;resizable=0;autosize=1;align=center;verticalAlign=middle;points=[];fillColor=none;strokeColor=none;rounded=0;" vertex="1" parent="x7eWs9GeYah_WwPgGHTQ-1">
          <mxGeometry x="665" y="30" width="70" height="20" as="geometry" />
        </mxCell>
        <mxCell id="x7eWs9GeYah_WwPgGHTQ-55" value="Normal" style="text;html=1;resizable=0;autosize=1;align=center;verticalAlign=middle;points=[];fillColor=none;strokeColor=none;rounded=0;" vertex="1" parent="x7eWs9GeYah_WwPgGHTQ-1">
          <mxGeometry x="45" y="30" width="50" height="20" as="geometry" />
        </mxCell>
        <mxCell id="x7eWs9GeYah_WwPgGHTQ-18" value="L1" visible="0" parent="x7eWs9GeYah_WwPgGHTQ-0" />
        <mxCell id="x7eWs9GeYah_WwPgGHTQ-19" value="" style="endArrow=none;dashed=1;html=1;dashPattern=1 3;strokeWidth=4;rounded=0;" edge="1" parent="x7eWs9GeYah_WwPgGHTQ-18">
          <mxGeometry width="50" height="50" relative="1" as="geometry">
            <mxPoint x="240" y="600" as="sourcePoint" />
            <mxPoint x="240" y="60" as="targetPoint" />
          </mxGeometry>
        </mxCell>
        <mxCell id="x7eWs9GeYah_WwPgGHTQ-20" value="" style="endArrow=none;dashed=1;html=1;dashPattern=1 3;strokeWidth=4;rounded=0;" edge="1" parent="x7eWs9GeYah_WwPgGHTQ-18">
          <mxGeometry width="50" height="50" relative="1" as="geometry">
            <mxPoint x="560" y="600" as="sourcePoint" />
            <mxPoint x="560" y="65" as="targetPoint" />
          </mxGeometry>
        </mxCell>
        <mxCell id="x7eWs9GeYah_WwPgGHTQ-21" value="$35sr676" style="swimlane;fontStyle=0;childLayout=stackLayout;horizontal=1;startSize=30;horizontalStack=0;resizeParent=1;resizeParentMax=0;resizeLast=0;collapsible=1;marginBottom=0;fillColor=#CCFFFF;" vertex="1" parent="x7eWs9GeYah_WwPgGHTQ-18">
          <mxGeometry x="630" y="100" width="140" height="60" as="geometry" />
        </mxCell>
        <mxCell id="x7eWs9GeYah_WwPgGHTQ-22" value="__proto__" style="text;strokeColor=none;fillColor=none;align=left;verticalAlign=middle;spacingLeft=4;spacingRight=4;overflow=hidden;points=[[0,0.5],[1,0.5]];portConstraint=eastwest;rotatable=0;" vertex="1" parent="x7eWs9GeYah_WwPgGHTQ-21">
          <mxGeometry y="30" width="140" height="30" as="geometry" />
        </mxCell>
        <mxCell id="x7eWs9GeYah_WwPgGHTQ-23" value="Object" style="swimlane;fontStyle=0;childLayout=stackLayout;horizontal=1;startSize=30;horizontalStack=0;resizeParent=1;resizeParentMax=0;resizeLast=0;collapsible=1;marginBottom=0;fillColor=#FFFFCC;" vertex="1" parent="x7eWs9GeYah_WwPgGHTQ-18">
          <mxGeometry x="320" y="100" width="140" height="60" as="geometry" />
        </mxCell>
        <mxCell id="x7eWs9GeYah_WwPgGHTQ-24" value="__proto__" style="text;strokeColor=none;fillColor=none;align=left;verticalAlign=middle;spacingLeft=4;spacingRight=4;overflow=hidden;points=[[0,0.5],[1,0.5]];portConstraint=eastwest;rotatable=0;" vertex="1" parent="x7eWs9GeYah_WwPgGHTQ-23">
          <mxGeometry y="30" width="140" height="30" as="geometry" />
        </mxCell>
        <mxCell id="x7eWs9GeYah_WwPgGHTQ-25" value="anonymous" style="swimlane;fontStyle=0;childLayout=stackLayout;horizontal=1;startSize=30;horizontalStack=0;resizeParent=1;resizeParentMax=0;resizeLast=0;collapsible=1;marginBottom=0;fillColor=#CCFFFF;" vertex="1" parent="x7eWs9GeYah_WwPgGHTQ-18">
          <mxGeometry x="640" y="400" width="140" height="60" as="geometry" />
        </mxCell>
        <mxCell id="x7eWs9GeYah_WwPgGHTQ-26" value="__proto__" style="text;strokeColor=none;fillColor=none;align=left;verticalAlign=middle;spacingLeft=4;spacingRight=4;overflow=hidden;points=[[0,0.5],[1,0.5]];portConstraint=eastwest;rotatable=0;" vertex="1" parent="x7eWs9GeYah_WwPgGHTQ-25">
          <mxGeometry y="30" width="140" height="30" as="geometry" />
        </mxCell>
        <mxCell id="x7eWs9GeYah_WwPgGHTQ-27" value="Function" style="swimlane;fontStyle=0;childLayout=stackLayout;horizontal=1;startSize=30;horizontalStack=0;resizeParent=1;resizeParentMax=0;resizeLast=0;collapsible=1;marginBottom=0;fillColor=#FFFFCC;" vertex="1" parent="x7eWs9GeYah_WwPgGHTQ-18">
          <mxGeometry x="320" y="400" width="140" height="60" as="geometry" />
        </mxCell>
        <mxCell id="x7eWs9GeYah_WwPgGHTQ-28" value="__proto__" style="text;strokeColor=none;fillColor=none;align=left;verticalAlign=middle;spacingLeft=4;spacingRight=4;overflow=hidden;points=[[0,0.5],[1,0.5]];portConstraint=eastwest;rotatable=0;" vertex="1" parent="x7eWs9GeYah_WwPgGHTQ-27">
          <mxGeometry y="30" width="140" height="30" as="geometry" />
        </mxCell>
        <mxCell id="x7eWs9GeYah_WwPgGHTQ-29" value="null" style="ellipse;shape=cloud;whiteSpace=wrap;html=1;fillColor=#999999;" vertex="1" parent="x7eWs9GeYah_WwPgGHTQ-18">
          <mxGeometry x="810" y="180" width="50" height="50" as="geometry" />
        </mxCell>
        <mxCell id="x7eWs9GeYah_WwPgGHTQ-30" value="" style="endArrow=classic;html=1;rounded=0;strokeWidth=1;entryX=0.4;entryY=0.1;entryDx=0;entryDy=0;entryPerimeter=0;exitX=1;exitY=0.5;exitDx=0;exitDy=0;edgeStyle=orthogonalEdgeStyle;curved=1;" edge="1" parent="x7eWs9GeYah_WwPgGHTQ-18" source="x7eWs9GeYah_WwPgGHTQ-22" target="x7eWs9GeYah_WwPgGHTQ-29">
          <mxGeometry width="50" height="50" relative="1" as="geometry">
            <mxPoint x="390" y="420" as="sourcePoint" />
            <mxPoint x="440" y="370" as="targetPoint" />
          </mxGeometry>
        </mxCell>
        <mxCell id="x7eWs9GeYah_WwPgGHTQ-31" value="" style="endArrow=classic;html=1;rounded=0;strokeWidth=1;curved=1;entryX=0.5;entryY=0;entryDx=0;entryDy=0;exitX=1;exitY=0.5;exitDx=0;exitDy=0;edgeStyle=orthogonalEdgeStyle;" edge="1" parent="x7eWs9GeYah_WwPgGHTQ-18" source="x7eWs9GeYah_WwPgGHTQ-26" target="x7eWs9GeYah_WwPgGHTQ-21">
          <mxGeometry width="50" height="50" relative="1" as="geometry">
            <mxPoint x="390" y="420" as="sourcePoint" />
            <mxPoint x="440" y="370" as="targetPoint" />
            <Array as="points">
              <mxPoint x="900" y="445" />
              <mxPoint x="900" y="60" />
              <mxPoint x="700" y="60" />
            </Array>
          </mxGeometry>
        </mxCell>
        <mxCell id="x7eWs9GeYah_WwPgGHTQ-32" value="" style="endArrow=classic;html=1;rounded=0;strokeWidth=1;curved=1;entryX=0.5;entryY=0;entryDx=0;entryDy=0;exitX=1;exitY=0.5;exitDx=0;exitDy=0;edgeStyle=orthogonalEdgeStyle;" edge="1" parent="x7eWs9GeYah_WwPgGHTQ-18" source="x7eWs9GeYah_WwPgGHTQ-24" target="x7eWs9GeYah_WwPgGHTQ-25">
          <mxGeometry width="50" height="50" relative="1" as="geometry">
            <mxPoint x="390" y="420" as="sourcePoint" />
            <mxPoint x="440" y="370" as="targetPoint" />
          </mxGeometry>
        </mxCell>
        <mxCell id="x7eWs9GeYah_WwPgGHTQ-33" value="" style="endArrow=classic;html=1;rounded=0;strokeWidth=1;curved=1;entryX=0.5;entryY=0;entryDx=0;entryDy=0;exitX=1;exitY=0.5;exitDx=0;exitDy=0;edgeStyle=orthogonalEdgeStyle;" edge="1" parent="x7eWs9GeYah_WwPgGHTQ-18" source="x7eWs9GeYah_WwPgGHTQ-28" target="x7eWs9GeYah_WwPgGHTQ-25">
          <mxGeometry width="50" height="50" relative="1" as="geometry">
            <mxPoint x="390" y="420" as="sourcePoint" />
            <mxPoint x="440" y="370" as="targetPoint" />
            <Array as="points">
              <mxPoint x="550" y="445" />
              <mxPoint x="550" y="350" />
              <mxPoint x="710" y="350" />
            </Array>
          </mxGeometry>
        </mxCell>
        <mxCell id="x7eWs9GeYah_WwPgGHTQ-59" value="Function" style="text;html=1;resizable=0;autosize=1;align=center;verticalAlign=middle;points=[];fillColor=none;strokeColor=none;rounded=0;" vertex="1" parent="x7eWs9GeYah_WwPgGHTQ-18">
          <mxGeometry x="374" y="30" width="60" height="20" as="geometry" />
        </mxCell>
        <mxCell id="x7eWs9GeYah_WwPgGHTQ-60" value="Prototype" style="text;html=1;resizable=0;autosize=1;align=center;verticalAlign=middle;points=[];fillColor=none;strokeColor=none;rounded=0;" vertex="1" parent="x7eWs9GeYah_WwPgGHTQ-18">
          <mxGeometry x="689" y="30" width="70" height="20" as="geometry" />
        </mxCell>
        <mxCell id="x7eWs9GeYah_WwPgGHTQ-61" value="Normal" style="text;html=1;resizable=0;autosize=1;align=center;verticalAlign=middle;points=[];fillColor=none;strokeColor=none;rounded=0;" vertex="1" parent="x7eWs9GeYah_WwPgGHTQ-18">
          <mxGeometry x="69" y="30" width="50" height="20" as="geometry" />
        </mxCell>
        <mxCell id="x7eWs9GeYah_WwPgGHTQ-34" value="L2" visible="0" parent="x7eWs9GeYah_WwPgGHTQ-0" />
        <mxCell id="x7eWs9GeYah_WwPgGHTQ-35" value="" style="endArrow=none;dashed=1;html=1;dashPattern=1 3;strokeWidth=4;rounded=0;" edge="1" parent="x7eWs9GeYah_WwPgGHTQ-34">
          <mxGeometry width="50" height="50" relative="1" as="geometry">
            <mxPoint x="240" y="600" as="sourcePoint" />
            <mxPoint x="240" y="60" as="targetPoint" />
          </mxGeometry>
        </mxCell>
        <mxCell id="x7eWs9GeYah_WwPgGHTQ-36" value="" style="endArrow=none;dashed=1;html=1;dashPattern=1 3;strokeWidth=4;rounded=0;" edge="1" parent="x7eWs9GeYah_WwPgGHTQ-34">
          <mxGeometry width="50" height="50" relative="1" as="geometry">
            <mxPoint x="560" y="600" as="sourcePoint" />
            <mxPoint x="560" y="65" as="targetPoint" />
          </mxGeometry>
        </mxCell>
        <mxCell id="x7eWs9GeYah_WwPgGHTQ-37" value="$35sr676" style="swimlane;fontStyle=0;childLayout=stackLayout;horizontal=1;startSize=30;horizontalStack=0;resizeParent=1;resizeParentMax=0;resizeLast=0;collapsible=1;marginBottom=0;fillColor=#CCFFFF;" vertex="1" parent="x7eWs9GeYah_WwPgGHTQ-34">
          <mxGeometry x="630" y="100" width="140" height="60" as="geometry" />
        </mxCell>
        <mxCell id="x7eWs9GeYah_WwPgGHTQ-38" value="__proto__" style="text;strokeColor=none;fillColor=none;align=left;verticalAlign=middle;spacingLeft=4;spacingRight=4;overflow=hidden;points=[[0,0.5],[1,0.5]];portConstraint=eastwest;rotatable=0;" vertex="1" parent="x7eWs9GeYah_WwPgGHTQ-37">
          <mxGeometry y="30" width="140" height="30" as="geometry" />
        </mxCell>
        <mxCell id="x7eWs9GeYah_WwPgGHTQ-39" value="Object" style="swimlane;fontStyle=0;childLayout=stackLayout;horizontal=1;startSize=30;horizontalStack=0;resizeParent=1;resizeParentMax=0;resizeLast=0;collapsible=1;marginBottom=0;fillColor=#FFFFCC;" vertex="1" parent="x7eWs9GeYah_WwPgGHTQ-34">
          <mxGeometry x="320" y="100" width="140" height="90" as="geometry" />
        </mxCell>
        <mxCell id="x7eWs9GeYah_WwPgGHTQ-40" value="__proto__" style="text;strokeColor=none;fillColor=none;align=left;verticalAlign=middle;spacingLeft=4;spacingRight=4;overflow=hidden;points=[[0,0.5],[1,0.5]];portConstraint=eastwest;rotatable=0;" vertex="1" parent="x7eWs9GeYah_WwPgGHTQ-39">
          <mxGeometry y="30" width="140" height="30" as="geometry" />
        </mxCell>
        <mxCell id="x7eWs9GeYah_WwPgGHTQ-50" value="prototype" style="text;strokeColor=none;fillColor=none;align=left;verticalAlign=middle;spacingLeft=4;spacingRight=4;overflow=hidden;points=[[0,0.5],[1,0.5]];portConstraint=eastwest;rotatable=0;" vertex="1" parent="x7eWs9GeYah_WwPgGHTQ-39">
          <mxGeometry y="60" width="140" height="30" as="geometry" />
        </mxCell>
        <mxCell id="x7eWs9GeYah_WwPgGHTQ-41" value="anonymous" style="swimlane;fontStyle=0;childLayout=stackLayout;horizontal=1;startSize=30;horizontalStack=0;resizeParent=1;resizeParentMax=0;resizeLast=0;collapsible=1;marginBottom=0;fillColor=#CCFFFF;" vertex="1" parent="x7eWs9GeYah_WwPgGHTQ-34">
          <mxGeometry x="640" y="400" width="140" height="60" as="geometry" />
        </mxCell>
        <mxCell id="x7eWs9GeYah_WwPgGHTQ-42" value="__proto__" style="text;strokeColor=none;fillColor=none;align=left;verticalAlign=middle;spacingLeft=4;spacingRight=4;overflow=hidden;points=[[0,0.5],[1,0.5]];portConstraint=eastwest;rotatable=0;" vertex="1" parent="x7eWs9GeYah_WwPgGHTQ-41">
          <mxGeometry y="30" width="140" height="30" as="geometry" />
        </mxCell>
        <mxCell id="x7eWs9GeYah_WwPgGHTQ-43" value="Function" style="swimlane;fontStyle=0;childLayout=stackLayout;horizontal=1;startSize=30;horizontalStack=0;resizeParent=1;resizeParentMax=0;resizeLast=0;collapsible=1;marginBottom=0;fillColor=#FFFFCC;" vertex="1" parent="x7eWs9GeYah_WwPgGHTQ-34">
          <mxGeometry x="320" y="400" width="140" height="90" as="geometry" />
        </mxCell>
        <mxCell id="x7eWs9GeYah_WwPgGHTQ-44" value="__proto__" style="text;strokeColor=none;fillColor=none;align=left;verticalAlign=middle;spacingLeft=4;spacingRight=4;overflow=hidden;points=[[0,0.5],[1,0.5]];portConstraint=eastwest;rotatable=0;" vertex="1" parent="x7eWs9GeYah_WwPgGHTQ-43">
          <mxGeometry y="30" width="140" height="30" as="geometry" />
        </mxCell>
        <mxCell id="x7eWs9GeYah_WwPgGHTQ-51" value="prototype" style="text;strokeColor=none;fillColor=none;align=left;verticalAlign=middle;spacingLeft=4;spacingRight=4;overflow=hidden;points=[[0,0.5],[1,0.5]];portConstraint=eastwest;rotatable=0;" vertex="1" parent="x7eWs9GeYah_WwPgGHTQ-43">
          <mxGeometry y="60" width="140" height="30" as="geometry" />
        </mxCell>
        <mxCell id="x7eWs9GeYah_WwPgGHTQ-45" value="null" style="ellipse;shape=cloud;whiteSpace=wrap;html=1;fillColor=#999999;" vertex="1" parent="x7eWs9GeYah_WwPgGHTQ-34">
          <mxGeometry x="810" y="180" width="50" height="50" as="geometry" />
        </mxCell>
        <mxCell id="x7eWs9GeYah_WwPgGHTQ-46" value="" style="endArrow=classic;html=1;rounded=0;strokeWidth=1;entryX=0.4;entryY=0.1;entryDx=0;entryDy=0;entryPerimeter=0;exitX=1;exitY=0.5;exitDx=0;exitDy=0;edgeStyle=orthogonalEdgeStyle;curved=1;" edge="1" parent="x7eWs9GeYah_WwPgGHTQ-34" source="x7eWs9GeYah_WwPgGHTQ-38" target="x7eWs9GeYah_WwPgGHTQ-45">
          <mxGeometry width="50" height="50" relative="1" as="geometry">
            <mxPoint x="390" y="420" as="sourcePoint" />
            <mxPoint x="440" y="370" as="targetPoint" />
          </mxGeometry>
        </mxCell>
        <mxCell id="x7eWs9GeYah_WwPgGHTQ-47" value="" style="endArrow=classic;html=1;rounded=0;strokeWidth=1;curved=1;entryX=0.5;entryY=0;entryDx=0;entryDy=0;exitX=1;exitY=0.5;exitDx=0;exitDy=0;edgeStyle=orthogonalEdgeStyle;" edge="1" parent="x7eWs9GeYah_WwPgGHTQ-34" source="x7eWs9GeYah_WwPgGHTQ-42" target="x7eWs9GeYah_WwPgGHTQ-37">
          <mxGeometry width="50" height="50" relative="1" as="geometry">
            <mxPoint x="390" y="420" as="sourcePoint" />
            <mxPoint x="440" y="370" as="targetPoint" />
            <Array as="points">
              <mxPoint x="900" y="445" />
              <mxPoint x="900" y="60" />
              <mxPoint x="700" y="60" />
            </Array>
          </mxGeometry>
        </mxCell>
        <mxCell id="x7eWs9GeYah_WwPgGHTQ-48" value="" style="endArrow=classic;html=1;rounded=0;strokeWidth=1;curved=1;entryX=0.5;entryY=0;entryDx=0;entryDy=0;exitX=1;exitY=0.5;exitDx=0;exitDy=0;edgeStyle=orthogonalEdgeStyle;" edge="1" parent="x7eWs9GeYah_WwPgGHTQ-34" source="x7eWs9GeYah_WwPgGHTQ-40" target="x7eWs9GeYah_WwPgGHTQ-41">
          <mxGeometry width="50" height="50" relative="1" as="geometry">
            <mxPoint x="390" y="420" as="sourcePoint" />
            <mxPoint x="440" y="370" as="targetPoint" />
          </mxGeometry>
        </mxCell>
        <mxCell id="x7eWs9GeYah_WwPgGHTQ-49" value="" style="endArrow=classic;html=1;rounded=0;strokeWidth=1;curved=1;entryX=0.5;entryY=0;entryDx=0;entryDy=0;exitX=1;exitY=0.5;exitDx=0;exitDy=0;edgeStyle=orthogonalEdgeStyle;" edge="1" parent="x7eWs9GeYah_WwPgGHTQ-34" source="x7eWs9GeYah_WwPgGHTQ-44" target="x7eWs9GeYah_WwPgGHTQ-41">
          <mxGeometry width="50" height="50" relative="1" as="geometry">
            <mxPoint x="390" y="420" as="sourcePoint" />
            <mxPoint x="440" y="370" as="targetPoint" />
            <Array as="points">
              <mxPoint x="550" y="445" />
              <mxPoint x="550" y="350" />
              <mxPoint x="710" y="350" />
            </Array>
          </mxGeometry>
        </mxCell>
        <mxCell id="x7eWs9GeYah_WwPgGHTQ-62" value="Function" style="text;html=1;resizable=0;autosize=1;align=center;verticalAlign=middle;points=[];fillColor=none;strokeColor=none;rounded=0;" vertex="1" parent="x7eWs9GeYah_WwPgGHTQ-34">
          <mxGeometry x="385" y="30" width="60" height="20" as="geometry" />
        </mxCell>
        <mxCell id="x7eWs9GeYah_WwPgGHTQ-63" value="Prototype" style="text;html=1;resizable=0;autosize=1;align=center;verticalAlign=middle;points=[];fillColor=none;strokeColor=none;rounded=0;" vertex="1" parent="x7eWs9GeYah_WwPgGHTQ-34">
          <mxGeometry x="700" y="30" width="70" height="20" as="geometry" />
        </mxCell>
        <mxCell id="x7eWs9GeYah_WwPgGHTQ-64" value="Normal" style="text;html=1;resizable=0;autosize=1;align=center;verticalAlign=middle;points=[];fillColor=none;strokeColor=none;rounded=0;" vertex="1" parent="x7eWs9GeYah_WwPgGHTQ-34">
          <mxGeometry x="80" y="30" width="50" height="20" as="geometry" />
        </mxCell>
        <mxCell id="x7eWs9GeYah_WwPgGHTQ-65" value="L3" visible="0" parent="x7eWs9GeYah_WwPgGHTQ-0" />
        <mxCell id="x7eWs9GeYah_WwPgGHTQ-66" value="" style="endArrow=none;dashed=1;html=1;dashPattern=1 3;strokeWidth=4;rounded=0;" edge="1" parent="x7eWs9GeYah_WwPgGHTQ-65">
          <mxGeometry width="50" height="50" relative="1" as="geometry">
            <mxPoint x="240" y="600" as="sourcePoint" />
            <mxPoint x="240" y="60" as="targetPoint" />
          </mxGeometry>
        </mxCell>
        <mxCell id="x7eWs9GeYah_WwPgGHTQ-67" value="" style="endArrow=none;dashed=1;html=1;dashPattern=1 3;strokeWidth=4;rounded=0;" edge="1" parent="x7eWs9GeYah_WwPgGHTQ-65">
          <mxGeometry width="50" height="50" relative="1" as="geometry">
            <mxPoint x="560" y="600" as="sourcePoint" />
            <mxPoint x="560" y="65" as="targetPoint" />
          </mxGeometry>
        </mxCell>
        <mxCell id="x7eWs9GeYah_WwPgGHTQ-68" value="$35sr676" style="swimlane;fontStyle=0;childLayout=stackLayout;horizontal=1;startSize=30;horizontalStack=0;resizeParent=1;resizeParentMax=0;resizeLast=0;collapsible=1;marginBottom=0;fillColor=#CCFFFF;" vertex="1" parent="x7eWs9GeYah_WwPgGHTQ-65">
          <mxGeometry x="630" y="100" width="140" height="60" as="geometry" />
        </mxCell>
        <mxCell id="x7eWs9GeYah_WwPgGHTQ-69" value="__proto__" style="text;strokeColor=none;fillColor=none;align=left;verticalAlign=middle;spacingLeft=4;spacingRight=4;overflow=hidden;points=[[0,0.5],[1,0.5]];portConstraint=eastwest;rotatable=0;" vertex="1" parent="x7eWs9GeYah_WwPgGHTQ-68">
          <mxGeometry y="30" width="140" height="30" as="geometry" />
        </mxCell>
        <mxCell id="x7eWs9GeYah_WwPgGHTQ-70" value="Object" style="swimlane;fontStyle=0;childLayout=stackLayout;horizontal=1;startSize=30;horizontalStack=0;resizeParent=1;resizeParentMax=0;resizeLast=0;collapsible=1;marginBottom=0;fillColor=#FFFFCC;" vertex="1" parent="x7eWs9GeYah_WwPgGHTQ-65">
          <mxGeometry x="320" y="100" width="140" height="90" as="geometry" />
        </mxCell>
        <mxCell id="x7eWs9GeYah_WwPgGHTQ-71" value="__proto__" style="text;strokeColor=none;fillColor=none;align=left;verticalAlign=middle;spacingLeft=4;spacingRight=4;overflow=hidden;points=[[0,0.5],[1,0.5]];portConstraint=eastwest;rotatable=0;" vertex="1" parent="x7eWs9GeYah_WwPgGHTQ-70">
          <mxGeometry y="30" width="140" height="30" as="geometry" />
        </mxCell>
        <mxCell id="x7eWs9GeYah_WwPgGHTQ-72" value="prototype" style="text;strokeColor=none;fillColor=none;align=left;verticalAlign=middle;spacingLeft=4;spacingRight=4;overflow=hidden;points=[[0,0.5],[1,0.5]];portConstraint=eastwest;rotatable=0;" vertex="1" parent="x7eWs9GeYah_WwPgGHTQ-70">
          <mxGeometry y="60" width="140" height="30" as="geometry" />
        </mxCell>
        <mxCell id="x7eWs9GeYah_WwPgGHTQ-73" value="anonymous" style="swimlane;fontStyle=0;childLayout=stackLayout;horizontal=1;startSize=30;horizontalStack=0;resizeParent=1;resizeParentMax=0;resizeLast=0;collapsible=1;marginBottom=0;fillColor=#CCFFFF;" vertex="1" parent="x7eWs9GeYah_WwPgGHTQ-65">
          <mxGeometry x="640" y="400" width="140" height="60" as="geometry" />
        </mxCell>
        <mxCell id="x7eWs9GeYah_WwPgGHTQ-74" value="__proto__" style="text;strokeColor=none;fillColor=none;align=left;verticalAlign=middle;spacingLeft=4;spacingRight=4;overflow=hidden;points=[[0,0.5],[1,0.5]];portConstraint=eastwest;rotatable=0;" vertex="1" parent="x7eWs9GeYah_WwPgGHTQ-73">
          <mxGeometry y="30" width="140" height="30" as="geometry" />
        </mxCell>
        <mxCell id="x7eWs9GeYah_WwPgGHTQ-75" value="Function" style="swimlane;fontStyle=0;childLayout=stackLayout;horizontal=1;startSize=30;horizontalStack=0;resizeParent=1;resizeParentMax=0;resizeLast=0;collapsible=1;marginBottom=0;fillColor=#FFFFCC;" vertex="1" parent="x7eWs9GeYah_WwPgGHTQ-65">
          <mxGeometry x="320" y="400" width="140" height="90" as="geometry" />
        </mxCell>
        <mxCell id="x7eWs9GeYah_WwPgGHTQ-76" value="__proto__" style="text;strokeColor=none;fillColor=none;align=left;verticalAlign=middle;spacingLeft=4;spacingRight=4;overflow=hidden;points=[[0,0.5],[1,0.5]];portConstraint=eastwest;rotatable=0;" vertex="1" parent="x7eWs9GeYah_WwPgGHTQ-75">
          <mxGeometry y="30" width="140" height="30" as="geometry" />
        </mxCell>
        <mxCell id="x7eWs9GeYah_WwPgGHTQ-77" value="prototype" style="text;strokeColor=none;fillColor=none;align=left;verticalAlign=middle;spacingLeft=4;spacingRight=4;overflow=hidden;points=[[0,0.5],[1,0.5]];portConstraint=eastwest;rotatable=0;" vertex="1" parent="x7eWs9GeYah_WwPgGHTQ-75">
          <mxGeometry y="60" width="140" height="30" as="geometry" />
        </mxCell>
        <mxCell id="x7eWs9GeYah_WwPgGHTQ-78" value="null" style="ellipse;shape=cloud;whiteSpace=wrap;html=1;fillColor=#999999;" vertex="1" parent="x7eWs9GeYah_WwPgGHTQ-65">
          <mxGeometry x="810" y="180" width="50" height="50" as="geometry" />
        </mxCell>
        <mxCell id="x7eWs9GeYah_WwPgGHTQ-79" value="" style="endArrow=classic;html=1;rounded=0;strokeWidth=1;entryX=0.4;entryY=0.1;entryDx=0;entryDy=0;entryPerimeter=0;exitX=1;exitY=0.5;exitDx=0;exitDy=0;edgeStyle=orthogonalEdgeStyle;curved=1;" edge="1" parent="x7eWs9GeYah_WwPgGHTQ-65" source="x7eWs9GeYah_WwPgGHTQ-69" target="x7eWs9GeYah_WwPgGHTQ-78">
          <mxGeometry width="50" height="50" relative="1" as="geometry">
            <mxPoint x="390" y="420" as="sourcePoint" />
            <mxPoint x="440" y="370" as="targetPoint" />
          </mxGeometry>
        </mxCell>
        <mxCell id="x7eWs9GeYah_WwPgGHTQ-80" value="" style="endArrow=classic;html=1;rounded=0;strokeWidth=1;curved=1;entryX=0.5;entryY=0;entryDx=0;entryDy=0;exitX=1;exitY=0.5;exitDx=0;exitDy=0;edgeStyle=orthogonalEdgeStyle;" edge="1" parent="x7eWs9GeYah_WwPgGHTQ-65" source="x7eWs9GeYah_WwPgGHTQ-74" target="x7eWs9GeYah_WwPgGHTQ-68">
          <mxGeometry width="50" height="50" relative="1" as="geometry">
            <mxPoint x="390" y="420" as="sourcePoint" />
            <mxPoint x="440" y="370" as="targetPoint" />
            <Array as="points">
              <mxPoint x="900" y="445" />
              <mxPoint x="900" y="60" />
              <mxPoint x="700" y="60" />
            </Array>
          </mxGeometry>
        </mxCell>
        <mxCell id="x7eWs9GeYah_WwPgGHTQ-81" value="" style="endArrow=classic;html=1;rounded=0;strokeWidth=1;curved=1;entryX=0.5;entryY=0;entryDx=0;entryDy=0;exitX=1;exitY=0.5;exitDx=0;exitDy=0;edgeStyle=orthogonalEdgeStyle;" edge="1" parent="x7eWs9GeYah_WwPgGHTQ-65" source="x7eWs9GeYah_WwPgGHTQ-71" target="x7eWs9GeYah_WwPgGHTQ-73">
          <mxGeometry width="50" height="50" relative="1" as="geometry">
            <mxPoint x="390" y="420" as="sourcePoint" />
            <mxPoint x="440" y="370" as="targetPoint" />
          </mxGeometry>
        </mxCell>
        <mxCell id="x7eWs9GeYah_WwPgGHTQ-82" value="" style="endArrow=classic;html=1;rounded=0;strokeWidth=1;curved=1;entryX=0.5;entryY=0;entryDx=0;entryDy=0;exitX=1;exitY=0.5;exitDx=0;exitDy=0;edgeStyle=orthogonalEdgeStyle;" edge="1" parent="x7eWs9GeYah_WwPgGHTQ-65" source="x7eWs9GeYah_WwPgGHTQ-76" target="x7eWs9GeYah_WwPgGHTQ-73">
          <mxGeometry width="50" height="50" relative="1" as="geometry">
            <mxPoint x="390" y="420" as="sourcePoint" />
            <mxPoint x="440" y="370" as="targetPoint" />
            <Array as="points">
              <mxPoint x="550" y="445" />
              <mxPoint x="550" y="350" />
              <mxPoint x="710" y="350" />
            </Array>
          </mxGeometry>
        </mxCell>
        <mxCell id="x7eWs9GeYah_WwPgGHTQ-83" value="Function" style="text;html=1;resizable=0;autosize=1;align=center;verticalAlign=middle;points=[];fillColor=none;strokeColor=none;rounded=0;" vertex="1" parent="x7eWs9GeYah_WwPgGHTQ-65">
          <mxGeometry x="385" y="30" width="60" height="20" as="geometry" />
        </mxCell>
        <mxCell id="x7eWs9GeYah_WwPgGHTQ-84" value="Prototype" style="text;html=1;resizable=0;autosize=1;align=center;verticalAlign=middle;points=[];fillColor=none;strokeColor=none;rounded=0;" vertex="1" parent="x7eWs9GeYah_WwPgGHTQ-65">
          <mxGeometry x="700" y="30" width="70" height="20" as="geometry" />
        </mxCell>
        <mxCell id="x7eWs9GeYah_WwPgGHTQ-85" value="Normal" style="text;html=1;resizable=0;autosize=1;align=center;verticalAlign=middle;points=[];fillColor=none;strokeColor=none;rounded=0;" vertex="1" parent="x7eWs9GeYah_WwPgGHTQ-65">
          <mxGeometry x="80" y="30" width="50" height="20" as="geometry" />
        </mxCell>
        <mxCell id="x7eWs9GeYah_WwPgGHTQ-86" value="" style="endArrow=classic;html=1;rounded=0;strokeWidth=1;curved=1;entryX=0.314;entryY=-0.05;entryDx=0;entryDy=0;entryPerimeter=0;exitX=1;exitY=0.5;exitDx=0;exitDy=0;edgeStyle=orthogonalEdgeStyle;" edge="1" parent="x7eWs9GeYah_WwPgGHTQ-65" source="x7eWs9GeYah_WwPgGHTQ-72" target="x7eWs9GeYah_WwPgGHTQ-68">
          <mxGeometry width="50" height="50" relative="1" as="geometry">
            <mxPoint x="390" y="360" as="sourcePoint" />
            <mxPoint x="440" y="310" as="targetPoint" />
            <Array as="points">
              <mxPoint x="545" y="175" />
              <mxPoint x="545" y="40" />
              <mxPoint x="674" y="40" />
            </Array>
          </mxGeometry>
        </mxCell>
        <mxCell id="x7eWs9GeYah_WwPgGHTQ-87" value="" style="endArrow=classic;html=1;rounded=0;strokeWidth=1;curved=1;exitX=1;exitY=0.5;exitDx=0;exitDy=0;edgeStyle=orthogonalEdgeStyle;" edge="1" parent="x7eWs9GeYah_WwPgGHTQ-65" source="x7eWs9GeYah_WwPgGHTQ-77">
          <mxGeometry width="50" height="50" relative="1" as="geometry">
            <mxPoint x="390" y="360" as="sourcePoint" />
            <mxPoint x="710" y="390" as="targetPoint" />
            <Array as="points">
              <mxPoint x="490" y="475" />
              <mxPoint x="490" y="330" />
              <mxPoint x="710" y="330" />
            </Array>
          </mxGeometry>
        </mxCell>
        <mxCell id="x7eWs9GeYah_WwPgGHTQ-88" value="L4" parent="x7eWs9GeYah_WwPgGHTQ-0" />
        <mxCell id="x7eWs9GeYah_WwPgGHTQ-89" value="" style="endArrow=none;dashed=1;html=1;dashPattern=1 3;strokeWidth=4;rounded=0;" edge="1" parent="x7eWs9GeYah_WwPgGHTQ-88">
          <mxGeometry width="50" height="50" relative="1" as="geometry">
            <mxPoint x="240" y="600" as="sourcePoint" />
            <mxPoint x="240" y="60" as="targetPoint" />
          </mxGeometry>
        </mxCell>
        <mxCell id="x7eWs9GeYah_WwPgGHTQ-90" value="" style="endArrow=none;dashed=1;html=1;dashPattern=1 3;strokeWidth=4;rounded=0;" edge="1" parent="x7eWs9GeYah_WwPgGHTQ-88">
          <mxGeometry width="50" height="50" relative="1" as="geometry">
            <mxPoint x="560" y="600" as="sourcePoint" />
            <mxPoint x="560" y="65" as="targetPoint" />
          </mxGeometry>
        </mxCell>
        <mxCell id="x7eWs9GeYah_WwPgGHTQ-91" value="$35sr676" style="swimlane;fontStyle=0;childLayout=stackLayout;horizontal=1;startSize=30;horizontalStack=0;resizeParent=1;resizeParentMax=0;resizeLast=0;collapsible=1;marginBottom=0;fillColor=#CCFFFF;" vertex="1" parent="x7eWs9GeYah_WwPgGHTQ-88">
          <mxGeometry x="630" y="100" width="140" height="90" as="geometry" />
        </mxCell>
        <mxCell id="x7eWs9GeYah_WwPgGHTQ-92" value="__proto__" style="text;strokeColor=none;fillColor=none;align=left;verticalAlign=middle;spacingLeft=4;spacingRight=4;overflow=hidden;points=[[0,0.5],[1,0.5]];portConstraint=eastwest;rotatable=0;" vertex="1" parent="x7eWs9GeYah_WwPgGHTQ-91">
          <mxGeometry y="30" width="140" height="30" as="geometry" />
        </mxCell>
        <mxCell id="x7eWs9GeYah_WwPgGHTQ-111" value="constructor" style="text;strokeColor=none;fillColor=none;align=left;verticalAlign=middle;spacingLeft=4;spacingRight=4;overflow=hidden;points=[[0,0.5],[1,0.5]];portConstraint=eastwest;rotatable=0;" vertex="1" parent="x7eWs9GeYah_WwPgGHTQ-91">
          <mxGeometry y="60" width="140" height="30" as="geometry" />
        </mxCell>
        <mxCell id="x7eWs9GeYah_WwPgGHTQ-93" value="Object" style="swimlane;fontStyle=0;childLayout=stackLayout;horizontal=1;startSize=30;horizontalStack=0;resizeParent=1;resizeParentMax=0;resizeLast=0;collapsible=1;marginBottom=0;fillColor=#FFFFCC;" vertex="1" parent="x7eWs9GeYah_WwPgGHTQ-88">
          <mxGeometry x="320" y="100" width="140" height="90" as="geometry" />
        </mxCell>
        <mxCell id="x7eWs9GeYah_WwPgGHTQ-94" value="__proto__" style="text;strokeColor=none;fillColor=none;align=left;verticalAlign=middle;spacingLeft=4;spacingRight=4;overflow=hidden;points=[[0,0.5],[1,0.5]];portConstraint=eastwest;rotatable=0;" vertex="1" parent="x7eWs9GeYah_WwPgGHTQ-93">
          <mxGeometry y="30" width="140" height="30" as="geometry" />
        </mxCell>
        <mxCell id="x7eWs9GeYah_WwPgGHTQ-95" value="prototype" style="text;strokeColor=none;fillColor=none;align=left;verticalAlign=middle;spacingLeft=4;spacingRight=4;overflow=hidden;points=[[0,0.5],[1,0.5]];portConstraint=eastwest;rotatable=0;" vertex="1" parent="x7eWs9GeYah_WwPgGHTQ-93">
          <mxGeometry y="60" width="140" height="30" as="geometry" />
        </mxCell>
        <mxCell id="x7eWs9GeYah_WwPgGHTQ-96" value="anonymous" style="swimlane;fontStyle=0;childLayout=stackLayout;horizontal=1;startSize=30;horizontalStack=0;resizeParent=1;resizeParentMax=0;resizeLast=0;collapsible=1;marginBottom=0;fillColor=#CCFFFF;" vertex="1" parent="x7eWs9GeYah_WwPgGHTQ-88">
          <mxGeometry x="640" y="400" width="140" height="90" as="geometry" />
        </mxCell>
        <mxCell id="x7eWs9GeYah_WwPgGHTQ-97" value="__proto__" style="text;strokeColor=none;fillColor=none;align=left;verticalAlign=middle;spacingLeft=4;spacingRight=4;overflow=hidden;points=[[0,0.5],[1,0.5]];portConstraint=eastwest;rotatable=0;" vertex="1" parent="x7eWs9GeYah_WwPgGHTQ-96">
          <mxGeometry y="30" width="140" height="30" as="geometry" />
        </mxCell>
        <mxCell id="x7eWs9GeYah_WwPgGHTQ-112" value="constructor" style="text;strokeColor=none;fillColor=none;align=left;verticalAlign=middle;spacingLeft=4;spacingRight=4;overflow=hidden;points=[[0,0.5],[1,0.5]];portConstraint=eastwest;rotatable=0;" vertex="1" parent="x7eWs9GeYah_WwPgGHTQ-96">
          <mxGeometry y="60" width="140" height="30" as="geometry" />
        </mxCell>
        <mxCell id="x7eWs9GeYah_WwPgGHTQ-98" value="Function" style="swimlane;fontStyle=0;childLayout=stackLayout;horizontal=1;startSize=30;horizontalStack=0;resizeParent=1;resizeParentMax=0;resizeLast=0;collapsible=1;marginBottom=0;fillColor=#FFFFCC;" vertex="1" parent="x7eWs9GeYah_WwPgGHTQ-88">
          <mxGeometry x="320" y="400" width="140" height="90" as="geometry" />
        </mxCell>
        <mxCell id="x7eWs9GeYah_WwPgGHTQ-99" value="__proto__" style="text;strokeColor=none;fillColor=none;align=left;verticalAlign=middle;spacingLeft=4;spacingRight=4;overflow=hidden;points=[[0,0.5],[1,0.5]];portConstraint=eastwest;rotatable=0;" vertex="1" parent="x7eWs9GeYah_WwPgGHTQ-98">
          <mxGeometry y="30" width="140" height="30" as="geometry" />
        </mxCell>
        <mxCell id="x7eWs9GeYah_WwPgGHTQ-100" value="prototype" style="text;strokeColor=none;fillColor=none;align=left;verticalAlign=middle;spacingLeft=4;spacingRight=4;overflow=hidden;points=[[0,0.5],[1,0.5]];portConstraint=eastwest;rotatable=0;" vertex="1" parent="x7eWs9GeYah_WwPgGHTQ-98">
          <mxGeometry y="60" width="140" height="30" as="geometry" />
        </mxCell>
        <mxCell id="x7eWs9GeYah_WwPgGHTQ-101" value="null" style="ellipse;shape=cloud;whiteSpace=wrap;html=1;fillColor=#999999;" vertex="1" parent="x7eWs9GeYah_WwPgGHTQ-88">
          <mxGeometry x="810" y="180" width="50" height="50" as="geometry" />
        </mxCell>
        <mxCell id="x7eWs9GeYah_WwPgGHTQ-102" value="" style="endArrow=classic;html=1;rounded=0;strokeWidth=1;entryX=0.4;entryY=0.1;entryDx=0;entryDy=0;entryPerimeter=0;exitX=1;exitY=0.5;exitDx=0;exitDy=0;edgeStyle=orthogonalEdgeStyle;curved=1;" edge="1" parent="x7eWs9GeYah_WwPgGHTQ-88" source="x7eWs9GeYah_WwPgGHTQ-92" target="x7eWs9GeYah_WwPgGHTQ-101">
          <mxGeometry width="50" height="50" relative="1" as="geometry">
            <mxPoint x="390" y="420" as="sourcePoint" />
            <mxPoint x="440" y="370" as="targetPoint" />
          </mxGeometry>
        </mxCell>
        <mxCell id="x7eWs9GeYah_WwPgGHTQ-103" value="" style="endArrow=classic;html=1;rounded=0;strokeWidth=1;curved=1;entryX=0.5;entryY=0;entryDx=0;entryDy=0;exitX=1;exitY=0.5;exitDx=0;exitDy=0;edgeStyle=orthogonalEdgeStyle;" edge="1" parent="x7eWs9GeYah_WwPgGHTQ-88" source="x7eWs9GeYah_WwPgGHTQ-97" target="x7eWs9GeYah_WwPgGHTQ-91">
          <mxGeometry width="50" height="50" relative="1" as="geometry">
            <mxPoint x="390" y="420" as="sourcePoint" />
            <mxPoint x="440" y="370" as="targetPoint" />
            <Array as="points">
              <mxPoint x="900" y="445" />
              <mxPoint x="900" y="60" />
              <mxPoint x="700" y="60" />
            </Array>
          </mxGeometry>
        </mxCell>
        <mxCell id="x7eWs9GeYah_WwPgGHTQ-104" value="" style="endArrow=classic;html=1;rounded=0;strokeWidth=1;curved=1;entryX=0.5;entryY=0;entryDx=0;entryDy=0;exitX=1;exitY=0.5;exitDx=0;exitDy=0;edgeStyle=orthogonalEdgeStyle;" edge="1" parent="x7eWs9GeYah_WwPgGHTQ-88" source="x7eWs9GeYah_WwPgGHTQ-94" target="x7eWs9GeYah_WwPgGHTQ-96">
          <mxGeometry width="50" height="50" relative="1" as="geometry">
            <mxPoint x="390" y="420" as="sourcePoint" />
            <mxPoint x="440" y="370" as="targetPoint" />
            <Array as="points">
              <mxPoint x="480" y="145" />
              <mxPoint x="480" y="300" />
              <mxPoint x="710" y="300" />
            </Array>
          </mxGeometry>
        </mxCell>
        <mxCell id="x7eWs9GeYah_WwPgGHTQ-105" value="" style="endArrow=classic;html=1;rounded=0;strokeWidth=1;curved=1;entryX=0.5;entryY=0;entryDx=0;entryDy=0;exitX=1;exitY=0.5;exitDx=0;exitDy=0;edgeStyle=orthogonalEdgeStyle;" edge="1" parent="x7eWs9GeYah_WwPgGHTQ-88" source="x7eWs9GeYah_WwPgGHTQ-99" target="x7eWs9GeYah_WwPgGHTQ-96">
          <mxGeometry width="50" height="50" relative="1" as="geometry">
            <mxPoint x="390" y="420" as="sourcePoint" />
            <mxPoint x="440" y="370" as="targetPoint" />
            <Array as="points">
              <mxPoint x="550" y="445" />
              <mxPoint x="550" y="350" />
              <mxPoint x="710" y="350" />
            </Array>
          </mxGeometry>
        </mxCell>
        <mxCell id="x7eWs9GeYah_WwPgGHTQ-106" value="Function" style="text;html=1;resizable=0;autosize=1;align=center;verticalAlign=middle;points=[];fillColor=none;strokeColor=none;rounded=0;" vertex="1" parent="x7eWs9GeYah_WwPgGHTQ-88">
          <mxGeometry x="385" y="30" width="60" height="20" as="geometry" />
        </mxCell>
        <mxCell id="x7eWs9GeYah_WwPgGHTQ-107" value="Prototype" style="text;html=1;resizable=0;autosize=1;align=center;verticalAlign=middle;points=[];fillColor=none;strokeColor=none;rounded=0;" vertex="1" parent="x7eWs9GeYah_WwPgGHTQ-88">
          <mxGeometry x="700" y="30" width="70" height="20" as="geometry" />
        </mxCell>
        <mxCell id="x7eWs9GeYah_WwPgGHTQ-108" value="Normal" style="text;html=1;resizable=0;autosize=1;align=center;verticalAlign=middle;points=[];fillColor=none;strokeColor=none;rounded=0;" vertex="1" parent="x7eWs9GeYah_WwPgGHTQ-88">
          <mxGeometry x="80" y="30" width="50" height="20" as="geometry" />
        </mxCell>
        <mxCell id="x7eWs9GeYah_WwPgGHTQ-109" value="" style="endArrow=classic;html=1;rounded=0;strokeWidth=1;curved=1;entryX=0.314;entryY=-0.05;entryDx=0;entryDy=0;entryPerimeter=0;exitX=1;exitY=0.5;exitDx=0;exitDy=0;edgeStyle=orthogonalEdgeStyle;" edge="1" parent="x7eWs9GeYah_WwPgGHTQ-88" source="x7eWs9GeYah_WwPgGHTQ-95" target="x7eWs9GeYah_WwPgGHTQ-91">
          <mxGeometry width="50" height="50" relative="1" as="geometry">
            <mxPoint x="390" y="360" as="sourcePoint" />
            <mxPoint x="440" y="310" as="targetPoint" />
            <Array as="points">
              <mxPoint x="545" y="175" />
              <mxPoint x="545" y="40" />
              <mxPoint x="674" y="40" />
            </Array>
          </mxGeometry>
        </mxCell>
        <mxCell id="x7eWs9GeYah_WwPgGHTQ-110" value="" style="endArrow=classic;html=1;rounded=0;strokeWidth=1;curved=1;exitX=1;exitY=0.5;exitDx=0;exitDy=0;edgeStyle=orthogonalEdgeStyle;" edge="1" parent="x7eWs9GeYah_WwPgGHTQ-88" source="x7eWs9GeYah_WwPgGHTQ-100">
          <mxGeometry width="50" height="50" relative="1" as="geometry">
            <mxPoint x="390" y="360" as="sourcePoint" />
            <mxPoint x="710" y="390" as="targetPoint" />
            <Array as="points">
              <mxPoint x="490" y="475" />
              <mxPoint x="490" y="330" />
              <mxPoint x="710" y="330" />
            </Array>
          </mxGeometry>
        </mxCell>
        <mxCell id="x7eWs9GeYah_WwPgGHTQ-115" value="" style="endArrow=classic;html=1;rounded=0;strokeWidth=1;curved=1;exitX=0;exitY=0.5;exitDx=0;exitDy=0;entryX=0.5;entryY=0;entryDx=0;entryDy=0;edgeStyle=orthogonalEdgeStyle;strokeColor=#FF66FF;" edge="1" parent="x7eWs9GeYah_WwPgGHTQ-88" source="x7eWs9GeYah_WwPgGHTQ-111" target="x7eWs9GeYah_WwPgGHTQ-93">
          <mxGeometry width="50" height="50" relative="1" as="geometry">
            <mxPoint x="390" y="360" as="sourcePoint" />
            <mxPoint x="440" y="310" as="targetPoint" />
            <Array as="points">
              <mxPoint x="570" y="175" />
              <mxPoint x="570" y="70" />
              <mxPoint x="390" y="70" />
            </Array>
          </mxGeometry>
        </mxCell>
        <mxCell id="x7eWs9GeYah_WwPgGHTQ-116" value="" style="endArrow=classic;html=1;rounded=0;strokeWidth=1;curved=1;exitX=0;exitY=0.5;exitDx=0;exitDy=0;entryX=0.5;entryY=0;entryDx=0;entryDy=0;edgeStyle=orthogonalEdgeStyle;strokeColor=#FF33FF;" edge="1" parent="x7eWs9GeYah_WwPgGHTQ-88" source="x7eWs9GeYah_WwPgGHTQ-112" target="x7eWs9GeYah_WwPgGHTQ-98">
          <mxGeometry width="50" height="50" relative="1" as="geometry">
            <mxPoint x="390" y="430" as="sourcePoint" />
            <mxPoint x="440" y="380" as="targetPoint" />
            <Array as="points">
              <mxPoint x="590" y="475" />
              <mxPoint x="590" y="360" />
              <mxPoint x="390" y="360" />
            </Array>
          </mxGeometry>
        </mxCell>
      </root>
    </mxGraphModel>
  </diagram>
</mxfile>
